<?xml version="1.0" encoding="UTF-8" standalone="no"?>
<!-- Created with Inkscape (http://www.inkscape.org/) -->
<svg
   xmlns:dc="http://purl.org/dc/elements/1.1/"
   xmlns:cc="http://web.resource.org/cc/"
   xmlns:rdf="http://www.w3.org/1999/02/22-rdf-syntax-ns#"
   xmlns:svg="http://www.w3.org/2000/svg"
   xmlns="http://www.w3.org/2000/svg"
   xmlns:sodipodi="http://sodipodi.sourceforge.net/DTD/sodipodi-0.dtd"
   xmlns:inkscape="http://www.inkscape.org/namespaces/inkscape"
   width="744.09448819"
   height="1052.3622047"
   id="svg2"
   sodipodi:version="0.32"
   inkscape:version="0.45.1"
   sodipodi:docbase="/home/reeuwijk/lab/trunk/docs/images"
   sodipodi:docname="match-no-match.svg"
   inkscape:output_extension="org.inkscape.output.svg.inkscape">
  <defs
     id="defs4">
    <marker
       inkscape:stockid="Dot_m"
       orient="auto"
       refY="0.0"
       refX="0.0"
       id="Dot_m"
       style="overflow:visible">
      <path
         id="path3241"
         d="M -2.5,-1.0 C -2.5,1.7600000 -4.7400000,4.0 -7.5,4.0 C -10.260000,4.0 -12.5,1.7600000 -12.5,-1.0 C -12.5,-3.7600000 -10.260000,-6.0 -7.5,-6.0 C -4.7400000,-6.0 -2.5,-3.7600000 -2.5,-1.0 z "
         style="fill-rule:evenodd;stroke:#000000;stroke-width:1.0pt;marker-start:none;marker-end:none"
         transform="scale(0.4) translate(7.4, 1)" />
    </marker>
    <marker
       inkscape:stockid="Dot_l"
       orient="auto"
       refY="0.0"
       refX="0.0"
       id="Dot_l"
       style="overflow:visible">
      <path
         id="path3238"
         d="M -2.5,-1.0 C -2.5,1.7600000 -4.7400000,4.0 -7.5,4.0 C -10.260000,4.0 -12.5,1.7600000 -12.5,-1.0 C -12.5,-3.7600000 -10.260000,-6.0 -7.5,-6.0 C -4.7400000,-6.0 -2.5,-3.7600000 -2.5,-1.0 z "
         style="fill-rule:evenodd;stroke:#000000;stroke-width:1.0pt;marker-start:none;marker-end:none"
         transform="scale(0.8) translate(7.4, 1)" />
    </marker>
    <marker
       inkscape:stockid="DiamondS"
       orient="auto"
       refY="0.0"
       refX="0.0"
       id="DiamondS"
       style="overflow:visible">
      <path
         id="path3262"
         d="M 0,-7.0710768 L -7.0710894,0 L 0,7.0710589 L 7.0710462,0 L 0,-7.0710768 z "
         style="fill-rule:evenodd;stroke:#000000;stroke-width:1.0pt;marker-start:none"
         transform="scale(0.2)" />
    </marker>
    <marker
       inkscape:stockid="DiamondM"
       orient="auto"
       refY="0.0"
       refX="0.0"
       id="DiamondM"
       style="overflow:visible">
      <path
         id="path3259"
         d="M 0,-7.0710768 L -7.0710894,0 L 0,7.0710589 L 7.0710462,0 L 0,-7.0710768 z "
         style="fill-rule:evenodd;stroke:#000000;stroke-width:1.0pt;marker-start:none"
         transform="scale(0.4)" />
    </marker>
    <marker
       inkscape:stockid="DiamondL"
       orient="auto"
       refY="0.0"
       refX="0.0"
       id="DiamondL"
       style="overflow:visible">
      <path
         id="path3256"
         d="M 0,-7.0710768 L -7.0710894,0 L 0,7.0710589 L 7.0710462,0 L 0,-7.0710768 z "
         style="fill-rule:evenodd;stroke:#000000;stroke-width:1.0pt;marker-start:none"
         transform="scale(0.8)" />
    </marker>
    <marker
       inkscape:stockid="CurveOut"
       orient="auto"
       refY="0.0"
       refX="0.0"
       id="CurveOut"
       style="overflow:visible">
      <path
         id="path3301"
         d="M -5.4129913,-5.0456926 C -2.6529913,-5.0456926 -0.41299131,-2.8056926 -0.41299131,-0.045692580 C -0.41299131,2.7143074 -2.6529913,4.9543074 -5.4129913,4.9543074"
         style="fill:none;fill-rule:evenodd;stroke:#000000;stroke-width:1.0pt;marker-start:none;marker-end:none"
         transform="scale(0.6)" />
    </marker>
    <marker
       inkscape:stockid="Arrow2Lend"
       orient="auto"
       refY="0.0"
       refX="0.0"
       id="Arrow2Lend"
       style="overflow:visible;">
      <path
         id="path3229"
         style="font-size:12.0;fill-rule:evenodd;stroke-width:0.62500000;stroke-linejoin:round;"
         d="M 8.7185878,4.0337352 L -2.2072895,0.016013256 L 8.7185884,-4.0017078 C 6.9730900,-1.6296469 6.9831476,1.6157441 8.7185878,4.0337352 z "
         transform="scale(1.1) rotate(180) translate(1,0)" />
    </marker>
  </defs>
  <sodipodi:namedview
     id="base"
     pagecolor="#ffffff"
     bordercolor="#666666"
     borderopacity="1.0"
     gridtolerance="10000"
     guidetolerance="10"
     objecttolerance="10"
     inkscape:pageopacity="0.0"
     inkscape:pageshadow="2"
     inkscape:zoom="5.5748886"
     inkscape:cx="212.84843"
     inkscape:cy="819.25394"
     inkscape:document-units="px"
     inkscape:current-layer="layer1"
     showgrid="true"
     gridspacingx="2mm"
     gridspacingy="2mm"
     gridanglex="8.4666669mm"
     gridanglez="8.4666669mm"
     grid_units="mm"
     inkscape:object-bbox="true"
     inkscape:grid-points="true"
     inkscape:object-points="true"
     inkscape:window-width="1278"
     inkscape:window-height="953"
     inkscape:window-x="2"
     inkscape:window-y="0"
     inkscape:guide-bbox="false"
     inkscape:grid-bbox="false" />
  <metadata
     id="metadata7">
    <rdf:RDF>
      <cc:Work
         rdf:about="">
        <dc:format>image/svg+xml</dc:format>
        <dc:type
           rdf:resource="http://purl.org/dc/dcmitype/StillImage" />
      </cc:Work>
    </rdf:RDF>
  </metadata>
  <g
     inkscape:label="Layer 1"
     inkscape:groupmode="layer"
     id="layer1">
    <path
       style="fill:#ff7701;fill-opacity:1;stroke:#000000;stroke-opacity:1"
       d="M 318.89764,184.25195 C 318.89764,194.03147 310.96063,201.96848 301.18111,201.96848 C 291.40158,201.96848 283.46457,194.03147 283.46457,184.25195 C 283.46457,174.47242 291.40158,166.53541 301.18111,166.53541 C 310.96063,166.53541 318.89764,174.47242 318.89764,184.25195 z "
       id="path3439" />
    <path
       style="fill:#ff7701;fill-opacity:1;stroke:#000000;stroke-opacity:1"
       d="M 142.23228,183.75195 C 142.23228,193.53147 134.29527,201.46848 124.51575,201.46848 C 114.73622,201.46848 106.79921,193.53147 106.79921,183.75195 C 106.79921,173.97242 114.73622,166.03541 124.51575,166.03541 C 134.29527,166.03541 142.23228,173.97242 142.23228,183.75195 z "
       id="path3441" />
    <path
       style="fill:none;fill-opacity:0.75;fill-rule:evenodd;stroke:#000000;stroke-width:1.0362432px;stroke-linecap:butt;stroke-linejoin:miter;marker-start:none;marker-end:url(#DiamondM);stroke-opacity:1"
       d="M 142.44479,183.46941 L 195.40457,183.49331"
       id="path3443"
       inkscape:connector-type="polyline"
       sodipodi:nodetypes="cc" />
    <path
       style="fill:none;fill-opacity:0.75;fill-rule:evenodd;stroke:#000000;stroke-width:0.6785931px;stroke-linecap:butt;stroke-linejoin:miter;marker-start:url(#CurveOut);marker-end:url(#Arrow2Lend);stroke-opacity:1"
       d="M 222.10379,183.50763 L 284.12585,183.57968"
       id="path2199"
       inkscape:connector-type="polyline"
       sodipodi:nodetypes="cc" />
    <path
       style="fill:none;fill-opacity:0.75;fill-rule:evenodd;stroke:#c80000;stroke-width:3;stroke-linecap:butt;stroke-linejoin:miter;stroke-miterlimit:4;stroke-dasharray:none;stroke-opacity:1"
       d="M 198.4252,173.62203 L 219.68504,194.88187 L 219.68504,194.88187 L 219.68504,194.88187"
       id="path3379" />
    <path
       style="fill:none;fill-opacity:0.75;fill-rule:evenodd;stroke:#c80000;stroke-width:3;stroke-linecap:butt;stroke-linejoin:miter;stroke-miterlimit:4;stroke-dasharray:none;stroke-opacity:1"
       d="M 219.68504,173.62203 L 198.4252,194.88187"
       id="path3381" />
    <path
       style="fill:#ff7701;fill-opacity:1;stroke:#000000;stroke-opacity:1"
       d="M 319.39764,240.44487 C 319.39764,250.22439 311.46063,258.1614 301.68111,258.1614 C 291.90158,258.1614 283.96457,250.22439 283.96457,240.44487 C 283.96457,230.66534 291.90158,222.72833 301.68111,222.72833 C 311.46063,222.72833 319.39764,230.66534 319.39764,240.44487 z "
       id="path3393" />
    <path
       style="fill:#ff7701;fill-opacity:1;stroke:#000000;stroke-opacity:1"
       d="M 142.23228,240.44487 C 142.23228,250.22439 134.29527,258.1614 124.51575,258.1614 C 114.73622,258.1614 106.79921,250.22439 106.79921,240.44487 C 106.79921,230.66534 114.73622,222.72833 124.51575,222.72833 C 134.29527,222.72833 142.23228,230.66534 142.23228,240.44487 z "
       id="path3395" />
    <path
       style="fill:none;fill-opacity:0.75;fill-rule:evenodd;stroke:#000000;stroke-width:1.036;stroke-linecap:butt;stroke-linejoin:miter;marker-start:none;marker-end:url(#Dot_m);stroke-opacity:1;stroke-miterlimit:4;stroke-dasharray:none"
       d="M 142.27543,240.56766 L 195.23521,240.59156"
       id="path3397"
       inkscape:connector-type="polyline"
       sodipodi:nodetypes="cc" />
    <path
       style="fill:none;fill-opacity:0.75;fill-rule:evenodd;stroke:#000000;stroke-width:0.6785931px;stroke-linecap:butt;stroke-linejoin:miter;marker-start:url(#CurveOut);marker-end:url(#Arrow2Lend);stroke-opacity:1"
       d="M 221.26887,240.54718 L 283.29093,240.61923"
       id="path3399"
       inkscape:connector-type="polyline"
       sodipodi:nodetypes="cc" />
    <path
       style="fill:none;fill-opacity:0.75;fill-rule:evenodd;stroke:#00c800;stroke-width:3;stroke-linecap:butt;stroke-linejoin:miter;stroke-miterlimit:4;stroke-dasharray:none;stroke-opacity:1"
       d="M 215.64782,230.31494 L 208.5612,244.48817 L 201.47459,237.40155"
       id="path3419" />
  </g>
</svg>
